<svg width="200" height="69" viewBox="0 0 200 69" fill="none" xmlns="http://www.w3.org/2000/svg">
<path d="M79.9147 33.6398C80.1419 34.3806 80.6103 35.0246 81.2456 35.4699C82.615 36.2615 85.776 35.7125 85.776 35.7125V21.7313C85.776 14.9216 79.872 11.6402 74.2966 11.7083C71.2465 11.7424 67.6077 11.7551 65.3681 13.6618C64.4595 14.4322 63.5296 15.3047 64.2206 17.0667L65.1293 18.4967C67.019 17.437 71.0161 16.4879 73.7164 16.5985C76.0669 16.6964 79.5009 18.0626 79.5009 21.0036C73.6866 18.6116 62.4375 21.1866 62.4375 28.1325C62.4375 32.546 67.0233 36.219 73.1576 36.219C74.9876 36.219 78.4387 35.4827 79.9147 33.6398ZM68.2817 27.9409C68.3628 24.4552 76.5489 24.3999 79.5478 25.732V29.4093C77.1931 31.848 68.1879 32.214 68.2817 27.9409ZM92.2516 36.6063C98.5735 33.112 99.1281 29.1837 99.4523 25.0894L99.7808 17.4497H108.206V35.7125H114.524V12.3978H97.5967C96.5403 12.3978 95.5271 12.8159 94.7793 13.5603C94.0316 14.3048 93.6103 15.3148 93.6081 16.3687L93.5313 24.5659C93.4716 26.3492 93.4119 28.2474 92.0127 30.2775C91.3162 31.241 90.4487 32.069 89.4532 32.7205L90.9121 34.6868C91.6458 35.7168 92.2516 36.6063 92.2516 36.6063ZM131.979 11.7296C124.233 11.7722 119.259 17.9605 119.259 23.9828C119.259 30.0051 124.045 36.1721 132.026 36.1721C135.439 36.1721 140.217 34.9634 143.118 31.8863L141.151 29.7583C140.739 29.3736 140.212 29.1338 139.651 29.0754C139.089 29.017 138.524 29.1432 138.041 29.4348C133.775 31.6267 126.144 30.6052 125.581 25.6639L144.261 25.5277C144.346 24.4552 144.38 24.1999 144.38 23.4678C144.38 16.9475 138.809 11.687 131.979 11.7296ZM125.581 21.5696C126.088 18.4414 129.582 16.9901 132.026 16.9901C134.471 16.9901 137.691 18.3478 138.199 21.5696H125.581ZM193.676 12.3978V21.3653H183.626V12.3978H177.351V35.7125H183.626V26.745H193.676V35.7125H199.998V12.3978H193.676ZM160.079 11.7083C157.029 11.7424 153.39 11.7551 151.15 13.6618C150.242 14.4322 149.312 15.3047 150.003 17.0667L150.899 18.4967C152.793 17.437 156.785 16.4879 159.486 16.5985C161.836 16.6964 165.27 18.0626 165.27 21.0036C159.456 18.6116 148.207 21.1866 148.207 28.1325C148.207 32.546 152.793 36.219 158.927 36.219C160.774 36.219 164.225 35.4827 165.705 33.6398C165.93 34.3806 166.397 35.0249 167.032 35.4699C168.401 36.2615 171.562 35.7125 171.562 35.7125V21.7313C171.545 14.9259 165.624 11.6402 160.079 11.7083ZM165.33 29.4093C162.975 31.848 153.97 32.214 154.064 27.9409C154.153 24.4467 162.331 24.3999 165.33 25.732V29.4093ZM69.297 52.9708H66.345V51.1322H65.2444V55.9075H66.345V53.822H69.297V55.882H70.3891V51.1152H69.297V52.9708ZM84.2275 57.2269V55.0137H83.1184V51.1152H82.0306V55.0137H79.2876V51.1152H78.187V55.8905H83.4426V57.2269H84.2275ZM86.4031 54.7201V51.1194H85.2939V55.8947H86.4372L89.1375 52.2686V55.8947H90.2295V51.1152H89.1033L86.4031 54.7201ZM97.2213 53.5028C97.2301 53.1267 97.1467 52.7541 96.9781 52.4175C96.8172 52.1091 96.5865 51.8424 96.3041 51.6387C95.7166 51.1994 94.9941 50.9782 94.2608 51.013C93.5281 50.9729 92.8051 51.1948 92.2217 51.6387C91.9406 51.8426 91.7112 52.1093 91.552 52.4175C91.3799 52.753 91.2948 53.1261 91.3045 53.5028C91.2954 53.8808 91.3804 54.2552 91.552 54.5924C91.71 54.9026 91.9395 55.171 92.2217 55.3755C92.8239 55.7833 93.535 56.0014 94.2629 56.0014C94.9908 56.0014 95.7019 55.7833 96.3041 55.3755C96.5876 55.1712 96.8186 54.9029 96.9781 54.5924C97.1498 54.2536 97.2362 53.8782 97.2298 53.4986L97.2213 53.5028ZM96.0268 54.2476C95.9151 54.4608 95.7561 54.6457 95.5619 54.7882C95.1946 55.0634 94.7404 55.1979 94.2821 55.167C93.8214 55.1895 93.3677 55.0477 93.0023 54.7669C92.8075 54.6314 92.6456 54.454 92.5288 54.2476C92.4088 54.0151 92.35 53.7558 92.3582 53.4943C92.3516 53.2376 92.4088 52.9832 92.5246 52.7538C92.6377 52.5355 92.7998 52.3462 92.9981 52.2005C93.3715 51.9384 93.8218 51.8081 94.2778 51.8302C94.7353 51.7949 95.19 51.9265 95.5576 52.2005C95.7548 52.3474 95.9166 52.5364 96.0311 52.7538C96.1503 52.9821 96.209 53.237 96.2017 53.4943C96.2086 53.7562 96.1484 54.0154 96.0268 54.2476ZM103.437 55.8862V51.1152H102.345V52.9708H99.6059V51.1322H98.5053V55.9075H99.6059V53.822H102.345V55.882L103.437 55.8862ZM111.789 52.9964C111.746 53.3292 111.676 53.658 111.58 53.9795C111.52 54.2385 111.403 54.4811 111.239 54.6903C111.171 54.7825 111.084 54.8588 110.984 54.9139C110.884 54.9691 110.773 55.0017 110.659 55.0095H110.556V55.8862H110.642C110.834 55.8977 111.028 55.8709 111.21 55.8074C111.392 55.7438 111.56 55.6447 111.704 55.5159C112.007 55.2017 112.239 54.8257 112.382 54.4136C112.535 53.9816 112.644 53.5353 112.706 53.0815L112.864 51.9962H114.536V55.8862H115.637V51.1152H112.028L111.789 52.9964ZM121.503 53.2517C121.116 52.9536 120.633 52.8095 120.146 52.8474H118.218V51.1109H117.121V55.8862H120.189C120.669 55.9195 121.144 55.7671 121.515 55.4606C121.799 55.1592 121.957 54.7612 121.957 54.3477C121.957 53.9341 121.799 53.5361 121.515 53.2347L121.503 53.2517ZM120.649 54.835C120.471 54.9653 120.251 55.0273 120.031 55.0095H118.226V53.6177H120.014C120.24 53.602 120.464 53.6685 120.645 53.805C120.718 53.8709 120.774 53.9521 120.811 54.0426C120.848 54.1332 120.864 54.2309 120.858 54.3285C120.865 54.4247 120.848 54.521 120.81 54.6096C120.773 54.6983 120.715 54.777 120.641 54.8392L120.649 54.835ZM134.867 55.8862H135.955V51.1152H134.867V55.8862ZM132.201 52.8474H130.495V51.1109H129.364V55.8862H132.223C132.703 55.9186 133.178 55.7663 133.549 55.4606C133.834 55.1597 133.993 54.7615 133.993 54.3477C133.993 53.9338 133.834 53.5357 133.549 53.2347C133.161 52.943 132.677 52.8064 132.193 52.8517L132.201 52.8474ZM132.7 54.835C132.522 54.9646 132.302 55.0265 132.082 55.0095H130.491V53.6177H132.065C132.291 53.602 132.515 53.6685 132.696 53.805C132.768 53.8714 132.824 53.9527 132.861 54.0432C132.898 54.1336 132.914 54.231 132.909 54.3285C132.916 54.4247 132.899 54.521 132.861 54.6096C132.824 54.6983 132.766 54.777 132.692 54.8392L132.7 54.835ZM139.394 50.3278C139.565 50.4109 139.753 50.4517 139.944 50.447C140.133 50.4522 140.32 50.4113 140.49 50.3278C140.643 50.2446 140.777 50.13 140.882 49.9916C140.995 49.8485 141.083 49.6874 141.142 49.5149C141.208 49.327 141.256 49.1332 141.283 48.9361H140.767C140.753 49.1889 140.668 49.4326 140.52 49.6383C140.453 49.7249 140.366 49.7941 140.266 49.84C140.167 49.8859 140.058 49.9073 139.948 49.9022C139.828 49.9057 139.709 49.8778 139.603 49.8213C139.508 49.7653 139.426 49.6916 139.359 49.6043C139.291 49.5114 139.24 49.4078 139.206 49.2978C139.172 49.1797 139.149 49.0585 139.138 48.9361H138.647C138.665 49.1322 138.702 49.326 138.758 49.5149C138.81 49.6862 138.89 49.8475 138.997 49.9916C139.099 50.1324 139.232 50.2487 139.385 50.3321L139.394 50.3278ZM138.592 54.7115V51.1109H137.47V55.8862H138.613L141.313 52.2601V55.8862H142.401V51.1152H141.275L138.592 54.7115ZM64.98 62.8619H67.0105V66.7647H68.1111V62.8619H70.3549V61.9852H64.98V62.8619ZM73.9084 65.4794L72.1338 61.9852H70.982L73.3069 66.5902C73.2725 66.6957 73.217 66.7932 73.1437 66.8766C73.0703 66.96 72.9807 67.0277 72.8803 67.0754C72.6535 67.1754 72.4072 67.2234 72.1594 67.2159C71.9576 67.2018 71.7591 67.1573 71.5707 67.0839L71.3702 67.9607C71.5741 68.0105 71.7831 68.0362 71.993 68.0373C72.4536 68.0591 72.9131 67.9761 73.3368 67.7947C73.5309 67.6988 73.7093 67.5739 73.8657 67.4244C74.0386 67.2528 74.1827 67.0544 74.2923 66.8371L76.4252 61.9894H75.3417L73.9084 65.4794ZM81.8471 62.4746C81.3921 62.0878 80.811 61.8804 80.2133 61.8915C79.5432 61.8804 78.888 62.0898 78.3491 62.4874V61.9852H77.3211V68.0969H78.3747V66.3476C78.9601 66.7026 79.6351 66.8828 80.32 66.8669C80.8398 66.8833 81.3503 66.7261 81.7703 66.42C82.0687 66.1976 82.3076 65.9052 82.4657 65.5688C82.6463 65.2085 82.7356 64.8096 82.7259 64.4069C82.7388 64.0075 82.6523 63.6113 82.4742 63.2535C82.3231 62.9499 82.1059 62.6838 81.8386 62.4746H81.8471ZM81.5059 65.1346C81.3837 65.364 81.2117 65.5632 81.0025 65.7177C80.7043 65.9033 80.3638 66.0102 80.0128 66.0284C79.4109 66.0372 78.8261 65.8286 78.3662 65.4411V63.4195C78.5614 63.1853 78.809 63.0001 79.0891 62.8789C79.3692 62.7576 79.6739 62.7037 79.9787 62.7215C80.363 62.7102 80.7381 62.8405 81.0324 63.0875C81.2238 63.244 81.3809 63.4381 81.4939 63.6578C81.6069 63.8774 81.6734 64.1179 81.6893 64.3643C81.6968 64.6337 81.6304 64.9001 81.4973 65.1346H81.5059ZM90.5751 66.7647H91.6714V62.8619H94.6276V66.7647H95.7197V61.9852H90.5665L90.5751 66.7647ZM102.4 64.3941C102.393 64.0913 102.34 63.7914 102.242 63.5046C102.136 63.1779 101.946 62.8845 101.692 62.6534C101.423 62.3869 101.102 62.1778 100.749 62.0388C100.396 61.8998 100.019 61.8337 99.64 61.8447C98.958 61.825 98.2903 62.0415 97.7502 62.4576C97.4705 62.687 97.2348 62.9654 97.0549 63.279C96.8878 63.618 96.8009 63.9908 96.8009 64.3686C96.8009 64.7463 96.8878 65.1191 97.0549 65.4581C97.2238 65.7647 97.4565 66.0318 97.7374 66.2412C98.2811 66.6321 98.9316 66.8474 99.6016 66.8583C100.253 66.8909 100.9 66.731 101.462 66.3987C101.877 66.1366 102.202 65.7553 102.396 65.3049H101.184C100.975 65.7943 100.621 66.0965 99.6827 66.0965C99.3756 66.1022 99.0721 66.0308 98.8 65.8887C98.5279 65.7467 98.296 65.5386 98.1256 65.2836C97.9977 65.0901 97.9146 64.8705 97.8825 64.6409H102.404L102.4 64.3941ZM97.9038 63.9685C97.9356 63.7497 98.0238 63.5429 98.1598 63.3684C98.3309 63.1555 98.5451 62.9811 98.7884 62.8564C99.0317 62.7317 99.2986 62.6596 99.5718 62.6448C99.8881 62.624 100.204 62.6959 100.48 62.8516C100.755 63.0074 100.98 63.2403 101.125 63.5216C101.208 63.6588 101.264 63.8104 101.291 63.9685H97.9038ZM126.856 52.9708H124.113V51.1322H123.013V55.9075H124.113V53.822H126.856V55.882H127.944V51.1152H126.856V52.9708ZM115.714 63.0747H117.744V66.9775H118.845V63.0747H121.089V62.198H115.714V63.0747ZM88.6938 62.547C88.1067 62.1071 87.3839 61.8857 86.6505 61.9213C85.9178 61.8812 85.1949 62.1031 84.6114 62.547C84.3325 62.7515 84.1035 63.0163 83.9417 63.3216C83.7806 63.6623 83.697 64.0344 83.697 64.4111C83.697 64.7879 83.7806 65.1599 83.9417 65.5007C84.1 65.8095 84.3295 66.0764 84.6114 66.2795C85.2128 66.6896 85.9242 66.909 86.6526 66.909C87.381 66.909 88.0925 66.6896 88.6938 66.2795C88.9781 66.0778 89.2093 65.8106 89.3678 65.5007C89.5307 65.1604 89.6152 64.7882 89.6152 64.4111C89.6152 64.0341 89.5307 63.6618 89.3678 63.3216C89.202 63.0139 88.9669 62.7487 88.681 62.547H88.6938ZM88.408 65.1644C88.2966 65.3765 88.1392 65.5611 87.9473 65.705C87.5795 65.9792 87.1257 66.1135 86.6676 66.0837C86.2064 66.1044 85.753 65.9611 85.3878 65.6794C85.1924 65.5476 85.0315 65.371 84.9185 65.1644C84.7959 64.9326 84.7357 64.6731 84.7436 64.4111C84.7354 64.1537 84.7942 63.8985 84.9143 63.6706C85.0256 63.4511 85.1861 63.2603 85.3835 63.113C85.7639 62.8488 86.2217 62.7185 86.6846 62.7427C87.1415 62.7131 87.5943 62.8441 87.9644 63.113C88.1592 63.2629 88.3193 63.4531 88.4336 63.6706C88.5537 63.8985 88.6125 64.1537 88.6042 64.4111C88.607 64.6746 88.5408 64.9342 88.4123 65.1644H88.408ZM107.852 62.4916C107.397 62.1048 106.816 61.8974 106.218 61.9086C105.548 61.8974 104.893 62.1068 104.354 62.5044V62.0022H103.326V68.1139H104.379V66.3646C104.964 66.7215 105.64 66.9018 106.325 66.8839C106.843 66.9007 107.352 66.7434 107.771 66.437C108.072 66.216 108.312 65.9234 108.47 65.5858C108.651 65.2255 108.74 64.8266 108.731 64.4239C108.743 64.0246 108.657 63.6283 108.479 63.2705C108.325 62.9673 108.107 62.7015 107.839 62.4916H107.852ZM107.511 65.1517C107.388 65.381 107.216 65.5802 107.007 65.7347C106.71 65.9223 106.369 66.0293 106.017 66.0454C105.416 66.0542 104.831 65.8456 104.371 65.4581V63.4365C104.566 63.2023 104.814 63.0171 105.094 62.8959C105.374 62.7746 105.679 62.7207 105.983 62.7385C106.368 62.728 106.742 62.8582 107.037 63.1045C107.228 63.2612 107.385 63.4553 107.498 63.6749C107.611 63.8946 107.678 64.135 107.694 64.3813C107.701 64.6512 107.633 64.9177 107.498 65.1517H107.511ZM126.587 62.547C126 62.1077 125.277 61.8865 124.544 61.9213C123.811 61.8812 123.088 62.1031 122.505 62.547C122.225 62.7504 121.996 63.0154 121.835 63.3216C121.672 63.6618 121.588 64.0341 121.588 64.4111C121.588 64.7882 121.672 65.1604 121.835 65.5007C121.991 65.8109 122.221 66.0783 122.505 66.2795C123.106 66.6896 123.818 66.909 124.546 66.909C125.275 66.909 125.986 66.6896 126.587 66.2795C126.872 66.0778 127.103 65.8106 127.261 65.5007C127.423 65.1599 127.506 64.7879 127.506 64.4111C127.506 64.0344 127.423 63.6623 127.261 63.3216C127.096 63.0139 126.86 62.7487 126.575 62.547H126.587ZM126.302 65.1644C126.19 65.3776 126.031 65.5625 125.837 65.705C125.469 65.9802 125.015 66.1147 124.557 66.0837C124.096 66.1051 123.642 65.9618 123.277 65.6794C123.081 65.5467 122.919 65.3704 122.804 65.1644C122.684 64.9315 122.626 64.6725 122.633 64.4111C122.625 64.1543 122.683 63.8996 122.799 63.6706C122.914 63.4518 123.075 63.2614 123.273 63.113C123.653 62.8482 124.111 62.7179 124.574 62.7427C125.031 62.7116 125.484 62.8428 125.854 63.113C126.05 63.2625 126.212 63.4527 126.327 63.6706C126.447 63.8985 126.506 64.1537 126.498 64.4111C126.493 64.6758 126.421 64.9351 126.289 65.1644H126.302ZM132.999 62.6874C132.544 62.3006 131.963 62.0932 131.365 62.1043C130.695 62.0932 130.04 62.3026 129.501 62.7002V62.198H128.473V68.2926H129.527V66.5434C130.111 66.9017 130.786 67.0835 131.472 67.0669C131.992 67.0815 132.502 66.9228 132.922 66.6158C133.221 66.3943 133.46 66.1017 133.618 65.7645C133.798 65.4043 133.887 65.0053 133.878 64.6026C133.891 64.2033 133.804 63.807 133.626 63.4492C133.47 63.1522 133.252 62.8923 132.986 62.6874H132.999ZM132.658 65.3474C132.536 65.5768 132.364 65.776 132.154 65.9305C131.857 66.118 131.516 66.2251 131.165 66.2412C130.563 66.25 129.978 66.0414 129.518 65.6539V63.6323C129.713 63.3981 129.961 63.2129 130.241 63.0917C130.521 62.9704 130.826 62.9165 131.131 62.9343C131.515 62.9238 131.89 63.054 132.184 63.3003C132.375 63.457 132.532 63.6511 132.645 63.8707C132.758 64.0903 132.825 64.3308 132.841 64.5771C132.848 64.847 132.78 65.1135 132.645 65.3474H132.658ZM76.6385 53.2602C76.6594 52.9459 76.6115 52.6308 76.498 52.3368C76.3846 52.0428 76.2083 51.777 75.9816 51.5578C75.5431 51.1647 74.9663 50.9612 74.3776 50.9918C74.1831 50.9769 73.9877 50.9769 73.7932 50.9918C73.5608 51.0051 73.3297 51.0364 73.1021 51.0854C72.8797 51.1349 72.6614 51.2018 72.4495 51.2854C72.2811 51.3499 72.1185 51.4282 71.9632 51.5195L72.2575 52.2558C72.5624 52.0964 72.8863 51.9762 73.2216 51.8983C73.581 51.8079 73.9524 51.7749 74.3222 51.8004C74.5814 51.7994 74.8348 51.8771 75.0489 52.023C75.263 52.1689 75.4275 52.3763 75.5209 52.6176C75.5967 52.774 75.6347 52.946 75.6318 53.1198C75.146 52.82 74.5815 52.6717 74.0108 52.6942C73.5349 52.6781 73.0635 52.7898 72.6457 53.0176C72.3996 53.1331 72.1869 53.3088 72.0271 53.5284C71.8241 53.8517 71.7467 54.238 71.8096 54.6144C71.8725 54.9907 72.0713 55.3311 72.3684 55.5713C72.813 55.9049 73.3682 56.0571 73.9212 55.9969C74.3839 55.9784 74.8375 55.8624 75.2521 55.6564C75.4739 55.5457 75.6019 55.4819 75.7128 55.4181C75.7854 55.6131 75.9092 55.785 76.0712 55.916C76.2541 55.9878 76.4514 56.0155 76.6471 55.9969C76.6471 55.9969 76.6471 54.8563 76.6471 54.7669L76.6385 53.2602ZM75.6147 54.8052C75.5422 54.8435 75.3118 54.9584 75.1369 55.0265C74.8019 55.1757 74.4372 55.247 74.0705 55.2351C73.772 55.2484 73.4758 55.176 73.2173 55.0265C73.0907 54.9681 72.9845 54.8733 72.9122 54.7542C72.84 54.6352 72.8051 54.4973 72.8121 54.3583C72.8121 53.7624 73.4903 53.439 74.352 53.4645C74.6797 53.4546 75.0052 53.5201 75.3033 53.656C75.4172 53.7193 75.5257 53.7919 75.6275 53.8731L75.6147 54.8052ZM109.631 53.2602C109.653 52.9458 109.605 52.6304 109.492 52.3362C109.378 52.042 109.201 51.7763 108.974 51.5578C108.758 51.3616 108.504 51.2105 108.229 51.1132C107.954 51.016 107.661 50.9747 107.37 50.9918C107.177 50.979 106.983 50.979 106.79 50.9918C106.556 51.0083 106.323 51.041 106.094 51.0896C105.871 51.1378 105.653 51.2047 105.442 51.2897C105.274 51.3546 105.112 51.4314 104.955 51.5195L105.25 52.2558C105.557 52.0991 105.882 51.9805 106.218 51.9026C106.576 51.8119 106.946 51.7789 107.314 51.8047C107.574 51.8037 107.827 51.8813 108.041 52.0272C108.255 52.1732 108.42 52.3805 108.513 52.6218C108.592 52.7773 108.632 52.9497 108.628 53.124C108.141 52.8227 107.575 52.6744 107.003 52.6984C106.528 52.6851 106.057 52.795 105.638 53.0176C105.392 53.1359 105.18 53.3128 105.019 53.5326C104.85 53.7836 104.767 54.0819 104.78 54.3838C104.77 54.6155 104.818 54.8461 104.919 55.0548C105.02 55.2636 105.172 55.444 105.361 55.5798C105.806 55.9118 106.36 56.0639 106.913 56.0054C107.377 55.9873 107.833 55.8712 108.249 55.6649C108.466 55.5543 108.594 55.4904 108.705 55.4266C108.78 55.6213 108.905 55.7929 109.068 55.9245C109.249 55.9946 109.445 56.0222 109.639 56.0054C109.639 56.0054 109.639 54.8648 109.639 54.7754L109.631 53.2602ZM108.607 54.8009C108.453 54.8856 108.293 54.9595 108.129 55.0222C107.795 55.1756 107.43 55.2471 107.063 55.2308C106.764 55.2469 106.468 55.1759 106.209 55.0265C106.082 54.9674 105.976 54.8718 105.904 54.752C105.832 54.6322 105.797 54.4936 105.804 54.354C105.804 53.7582 106.482 53.439 107.344 53.4603C107.672 53.4506 107.998 53.5176 108.295 53.656C108.41 53.7178 108.519 53.7905 108.62 53.8731L108.607 54.8009ZM114.737 64.1174C114.759 63.803 114.712 63.4876 114.598 63.1934C114.484 62.8992 114.308 62.6335 114.08 62.415C113.864 62.2188 113.611 62.0677 113.335 61.9705C113.06 61.8732 112.768 61.8319 112.476 61.849C112.283 61.8362 112.089 61.8362 111.896 61.849C111.662 61.864 111.429 61.8967 111.2 61.9469C110.979 61.9943 110.762 62.0612 110.552 62.1469C110.382 62.2092 110.218 62.2861 110.061 62.3767L110.36 63.113C110.666 62.9563 110.99 62.8376 111.324 62.7598C111.682 62.6693 112.052 62.6363 112.421 62.6619C112.68 62.6609 112.933 62.7385 113.147 62.8845C113.361 63.0304 113.526 63.2377 113.619 63.479C113.698 63.6345 113.738 63.807 113.734 63.9812C113.248 63.6794 112.681 63.531 112.109 63.5556C111.635 63.5371 111.165 63.6474 110.748 63.8748C110.501 63.9907 110.288 64.1681 110.13 64.3898C109.957 64.6391 109.871 64.9383 109.887 65.241C109.877 65.4733 109.925 65.7043 110.026 65.9137C110.127 66.123 110.279 66.3042 110.467 66.4412C110.911 66.7753 111.466 66.9275 112.02 66.8669C112.484 66.8513 112.939 66.7367 113.355 66.5306C113.572 66.42 113.7 66.3561 113.811 66.2923C113.888 66.4862 114.013 66.6575 114.174 66.7903C114.356 66.8589 114.552 66.885 114.745 66.8669C114.745 66.8669 114.745 65.7305 114.745 65.6411L114.737 64.1174ZM113.717 65.6581C113.562 65.7427 113.401 65.8166 113.235 65.8795C112.902 66.0333 112.536 66.1048 112.169 66.088C111.87 66.1054 111.574 66.0343 111.316 65.8837C111.188 65.8255 111.081 65.7302 111.009 65.6101C110.936 65.4901 110.902 65.3511 110.91 65.2113C110.91 64.6154 111.584 64.2962 112.45 64.3175C112.778 64.3089 113.104 64.3759 113.402 64.5133C113.516 64.5761 113.624 64.6487 113.726 64.7303L113.717 65.6581Z" fill="#6670F6"/>
<path d="M44.9038 29.9347C48.1986 15.2553 47.2988 6.77389 41.9427 2.50056C36.6978 -1.68795 28.0731 -0.653867 14.4783 5.89965C-0.399138 13.073 -3.15082 21.7501 3.21633 28.2873C7.14263 32.3127 12.8554 30.4533 17.1252 33.7252C21.2969 37.121 20.9697 43.0058 25.6322 45.9808C33.2558 50.887 41.2982 46.0134 44.9038 29.9347Z" fill="url(#paint0_linear)"/>
<defs>
<linearGradient id="paint0_linear" x1="42.8196" y1="4.20663" x2="14.6133" y2="36.2593" gradientUnits="userSpaceOnUse">
<stop offset="0.05" stop-color="#6FCAF3"/>
<stop offset="0.22" stop-color="#6CABF4"/>
<stop offset="0.49" stop-color="#6880F5"/>
<stop offset="0.62" stop-color="#6670F6"/>
<stop offset="1" stop-color="#AC66F0"/>
</linearGradient>
</defs>
</svg>
