<?xml version="1.0" encoding="utf-8"?>
<!-- Generator: Adobe Illustrator 23.0.3, SVG Export Plug-In . SVG Version: 6.00 Build 0)  -->
<svg version="1.1" id="Слой_1" xmlns="http://www.w3.org/2000/svg" xmlns:xlink="http://www.w3.org/1999/xlink" x="0px" y="0px"
	 viewBox="0 0 217 87" style="enable-background:new 0 0 217 87;" xml:space="preserve">
<style type="text/css">
	.st0{fill:#2660AA;}
	.st1{fill:#709CCF;}
	.st2{fill:#FFFFFF;}
</style>
<g>
	<g>
		<g>
			<g>
				<g>
					<g>
						<path class="st0" d="M55.09,33.83c-1.74-3.3-4.19-6.05-7.36-8.22c-2.09-1.43-4.41-2.49-6.96-3.19
							c-2.55-0.7-5.43-1.06-8.61-1.06c-8.66,0-18.79,1.59-26.59-2.8c1.19,3.27,3.26,7.75,6.52,10.15c0.93,0.64,2.52,1.37,3.3,1.17
							v23.45c2.95-2.79,6.04-4.57,9.64-6.5c0.02,3.68,0.02,6.52,3.55,8.58l0.02,0.01c-0.1-0.54-0.14-1.2-0.14-1.99v-1.2v-21.1
							c0-2.09,0.26-3.5,0.8-4.2c0.52-0.72,1.43-1.08,2.7-1.08c3.23,0,6.01,1.76,8.36,5.28c2.34,3.5,3.52,7.82,3.52,12.94
							c0,4.46-1,7.93-3,10.44c-1.99,2.5-4.79,3.75-8.39,3.75c-0.27,0-0.52-0.01-0.76-0.02c-0.51-0.04-1-0.11-1.47-0.2
							c-0.01,0-0.01-0.01-0.02-0.01c-4.03-0.87-6.33-4.09-6.17-8.52c-3.79,1.97-6.49,3.95-8.7,6.31c-1.75,1.88-3.19,3.99-4.64,6.52
							l-0.01,0.16h1.63h20.95h2.96c3.75,0,6.76-0.35,9.08-1.04c2.31-0.7,4.39-1.82,6.25-3.38c2-1.71,3.53-3.72,4.58-6.02
							c1.04-2.31,1.57-4.81,1.57-7.5C57.7,40.72,56.83,37.15,55.09,33.83z M118.18,46.34c-0.37,0-0.91,0.04-1.64,0.1
							c-0.74,0.08-1.29,0.11-1.65,0.11c-0.23,0-0.51-0.02-0.79-0.06v-5.18l-6.05,0.81v0.67c0.41,0.04,0.69,0.19,0.84,0.45
							c0.14,0.25,0.22,0.91,0.22,1.98v1.26c-0.28,0.04-0.56,0.06-0.8,0.06c-0.37,0-0.92-0.04-1.64-0.11
							c-0.73-0.07-1.29-0.1-1.65-0.1c-1.99,0-3.61,0.6-4.84,1.79c-1.1,1.05-1.71,2.4-1.83,4.02c-0.33-0.38-0.71-0.69-1.16-0.94
							c-0.48-0.28-1.03-0.46-1.64-0.58c-0.61-0.12-1.49-0.17-2.62-0.17h-3.53v-3.78l-5.66,0.73v0.65c0.29,0.03,0.49,0.13,0.6,0.32
							c0.11,0.18,0.16,0.65,0.16,1.4v7.71c0,0.63-0.07,1.04-0.23,1.21c-0.1,0.12-0.18,0.25-0.47,0.25
							c-0.34-0.01-0.62-0.26-0.86-0.55c-0.27-0.32-0.57-0.92-0.87-1.79l-2.42-6.45c-0.03-0.08-0.07-0.19-0.13-0.33
							c-0.36-0.92-0.54-1.47-0.54-1.65c0-0.21,0.04-0.37,0.12-0.5c0.08-0.13,0.21-0.25,0.39-0.36v-0.64h-5.66v0.64
							c0.18,0.13,0.32,0.27,0.4,0.42c0.09,0.15,0.14,0.33,0.14,0.54c0,0.21-0.12,0.6-0.34,1.18c-0.09,0.22-0.15,0.39-0.2,0.51
							l-2.02,5.08c-0.45,0.84-1.05,1.49-1.64,1.93c-0.7,0.54-1.54,0.8-2.51,0.8c-1.21,0-2.22-0.38-3.01-1.13
							c-0.8-0.74-1.31-1.79-1.53-3.12l2.06-0.48l7.4-1.7c-0.69-1.78-1.59-3.05-2.68-3.85c-1.11-0.8-2.55-1.19-4.33-1.19
							c-2.34,0-4.26,0.63-5.76,1.89c-1.5,1.26-2.25,2.84-2.25,4.74c0,2.05,0.83,3.75,2.49,5.08c1.67,1.35,3.81,2.01,6.44,2.01
							c0.52,0,1.18,0.01,1.95-0.13c0.5-0.1,0.85-0.19,1.11-0.26h4.28l-0.01-0.65c-0.27-0.03-0.48-0.12-0.63-0.3
							c-0.15-0.16-0.22-0.4-0.22-0.71c0-0.28,0.12-0.77,0.36-1.45l0.02-0.03l1.81-5.02l0.4,1.2l1.39,4.18
							c0.03,0.07,0.06,0.17,0.11,0.29c0.14,0.38,0.22,0.68,0.22,0.88c0,0.31-0.08,0.54-0.25,0.71c-0.17,0.17-0.4,0.25-0.69,0.25
							v0.65h7.62l0,0h6.89c1.02,0,4.71-0.06,5.24-0.16c0.53-0.1,0.99-0.28,1.39-0.53c0.65-0.39,1.15-0.91,1.5-1.56
							c0.18-0.32,0.32-0.66,0.41-1.02c0.55,0.9,1.27,1.66,2.15,2.3c0.63,0.45,1.35,0.8,2.17,1.01c0.82,0.22,1.83,0.32,3.01,0.32
							c0.59,0,1.22-0.03,1.89-0.1c0.19-0.02,0.35-0.05,0.49-0.06v3.23c0,0.86-0.1,1.42-0.29,1.67c-0.19,0.25-0.53,0.4-1,0.46v0.65
							h7.73v-0.65c-0.56-0.11-0.95-0.34-1.15-0.7c-0.21-0.35-0.31-1.12-0.31-2.31v-2.34c0.14,0.01,0.3,0.04,0.48,0.06
							c0.68,0.06,1.3,0.1,1.89,0.1c1.19,0,2.19-0.1,3.01-0.32c0.82-0.21,1.53-0.55,2.17-1.01c0.99-0.72,1.78-1.6,2.35-2.65
							c0.57-1.06,0.86-2.14,0.86-3.27c0-1.89-0.62-3.43-1.86-4.62C121.78,46.94,120.17,46.34,118.18,46.34z M62.96,51.6
							c-0.02-0.33-0.03-0.54-0.03-0.63c0-0.78,0.22-1.42,0.66-1.93c0.44-0.52,0.98-0.78,1.61-0.78c0.55,0,1.02,0.22,1.39,0.67
							c0.37,0.44,0.63,1.09,0.78,1.93l-4.38,1.04C62.98,51.83,62.97,51.73,62.96,51.6z M93.5,57.5c-0.38,0.58-0.89,0.86-1.51,0.86
							c-1.56,0-2.57-1.17-2.57-1.84v-4.64c0.06,0,1.47-0.01,1.57-0.01c0.19-0.01,0.32-0.02,0.39-0.02c0.88,0,1.55,0.29,2.02,0.86
							c0.46,0.58,0.69,1.41,0.69,2.51C94.08,56.17,93.89,56.93,93.5,57.5z M109.12,57.65c-0.36,0.11-0.74,0.16-1.15,0.16
							c-1.3,0-2.34-0.45-3.11-1.35c-0.77-0.89-1.16-2.11-1.16-3.63c0-1.4,0.32-2.5,0.95-3.31c0.64-0.82,1.49-1.22,2.57-1.22
							c0.72,0,1.35,0.2,1.9,0.6V57.65z M118.35,56.46c-0.77,0.9-1.81,1.35-3.11,1.35c-0.4,0-0.79-0.05-1.14-0.16V48.9
							c0.54-0.4,1.17-0.6,1.89-0.6c1.08,0,1.93,0.4,2.57,1.22c0.63,0.81,0.95,1.91,0.95,3.31
							C119.51,54.35,119.13,55.57,118.35,56.46z M154.61,47.81c0.13-0.23,0.66-0.38,0.99-0.45v-0.74h-7.17v0.74
							c0.33,0.06,0.87,0.22,0.99,0.45c0.12,0.23,0.18,0.75,0.18,1.56v0.82h-4.03v-0.82c0-0.82,0.06-1.33,0.19-1.56
							c0.12-0.23,0.65-0.38,0.98-0.45v-0.74h-7.14v0.74c0.34,0.06,0.84,0.22,0.96,0.45c0.12,0.23,0.18,0.75,0.18,1.56v7.49
							c0,0.81-0.06,1.33-0.18,1.56c-0.07,0.13-0.27,0.31-0.47,0.31c-0.21,0-0.43-0.22-0.55-0.39c-0.22-0.29-0.32-0.85-0.32-1.68
							V46.47l-6.46,0.37v0.65c0.55,0.07,0.93,0.25,1.13,0.54c0.22,0.29,0.32,0.85,0.32,1.69v3.18c0,1.42-0.22,2.5-0.64,3.24
							c-0.43,0.74-1.05,1.11-1.88,1.11c-0.48,0-0.84-0.18-1.05-0.54c-0.22-0.36-0.33-0.94-0.33-1.75v-8.51l-6.44,0.37v0.65
							c0.54,0.06,0.91,0.23,1.12,0.53c0.22,0.29,0.32,0.86,0.32,1.71v5.74c0,1.71,0.27,2.89,0.8,3.53c0.53,0.64,1.46,0.97,2.76,0.97
							c1.02,0,1.96-0.2,2.82-0.59c0.86-0.39,1.69-1.01,2.51-1.84c0.02,0.41,0.07,0.78,0.14,1.12c0.07,0.33,0.2,0.65,0.34,0.94h5.97
							l0,0l6.08,0.01v-0.75c-0.33-0.06-0.86-0.21-0.98-0.44c-0.13-0.23-0.19-0.75-0.19-1.56v-5.33h4.03v5.33
							c0,0.81-0.06,1.33-0.18,1.56c-0.12,0.23-0.66,0.38-0.99,0.44v0.75h7.17v-0.75c-0.32-0.06-0.86-0.21-0.99-0.44
							c-0.12-0.23-0.18-0.75-0.18-1.56v-7.49C154.44,48.56,154.5,48.04,154.61,47.81z"/>
						<path class="st0" d="M179.12,22.87c0.17,0.12,0.27,0.21,0.34,0.27c0.27,0.29,0.3,0.67-0.1,0.23c-1.35-1.25-3.38-1.76-4.9-1.6
							c-0.73,0.12-1.15-0.08-0.63-0.25c0.64-0.12,1.27-0.11,1.86-0.02c-1.12-3.21,2.08-6.12,4.58-4.89
							C182.89,17.91,182.48,21.94,179.12,22.87 M209.86,18.24c-2.09-1.21-3.99-1.75-6.84-2.23c-2.19-0.36-4.84,0.56-7,0.04
							c-6.44-10.13-15.15-13.77-21.44-13.18c-5.68,0.58-9.29,7.82-9.05,10.78c0.43,0.43,0.72,0.99,0.92,1.57
							c0.35-0.03,1.1,0.05,1.51,1.02c0,0-0.66-0.62-1.38-0.6c0.32,1.22,0.27,2.37,0.27,2.37c-0.21-2.09-1.25-3.23-1.59-3.56
							c-2.8,1.15-12.53-0.23-13.19,2.86c-1.11,4.52,8.06,6.62,9.19,6.84c0.38,0.08,0.81,0.15,1.25,0.23
							c1.08,0.19,2.33,0.35,3.62,0.46l-2.69,0.23c-6.8,1.09-1.98,5.18,5.63,2.72c1.88-0.83,4.42-2.95,7.37-1.72
							c0.18-0.76-0.97-1.48-1.5-1.94l-0.51-0.3c0,0,0.24-0.17,0.59-0.13c2.36,0.39,4.82,2.23,4.69,4.68
							c-0.18,4.25,1.73,7.33,4.35,10.17c-1.44,1.05-2.59,2.32-3.4,3.45c-0.6,0.85-1.83,3.5-2.08,7.01c-0.16,2.34,0.1,5.05,1.27,7.86
							c1.11,2.68,2.44,0.48,2.82-0.05c0.48-0.66,1.43-2.1,2.86-3.3c2.07-1.75,5.27-3.43,7.64-5.51c0.08,0.1,0.16,0.2,0.24,0.32
							c2.66,3.96,1.61,11-1.02,14.87c-2.25,3.3-9.74,5.57-12.57,3.48c-0.03-0.02-0.07-0.06-0.1-0.11c-0.05-0.05-0.09-0.12-0.15-0.2
							c-0.43-0.6-1.29-1.88-3.25-3.35c-0.17-0.13-0.36-0.26-0.56-0.4c-0.11-0.07-0.22-0.13-0.33-0.21
							c-3.83-2.39-7.6-2.72-10.55-2.34c-1.94,0.24-3.52,0.79-4.51,1.25c-2.04,0.97-1,1.37-0.4,1.39h0.04h0.03c0.04,0,0.08,0,0.11,0
							c0.52-0.13,2.37-0.45,4.24,1.37c0.04,0.05,0.09,0.08,0.14,0.14c0.03,0.02,0.07,0.06,0.09,0.08c1.91,1.88,3.92,4.13,6.45,4.72
							c-0.04,0.01-0.07,0.03-0.11,0.05c-0.69,0.34-2.19,1.62-3.08,3.87c-0.42,1.04-0.7,2.29-0.72,3.76
							c-0.02,2.15-0.37,3.49-0.81,4.33c-0.53,1.03-1.17,1.32-1.47,1.44c-0.2,0.07-0.58,0.24-0.85,0.47
							c-0.5,0.41-0.62,0.99,1.52,1.41c7.67,1.53,13.23-6.8,14.14-9.39c0.21-0.61,0.47-0.89,1.22-0.96c0.2-0.02,0.4-0.03,0.58-0.05
							c19.28-1.79,32.68-28.1,24.31-42.7c-1.94-3.41-2.15-7.05,1.82-9.37c0.98-0.61,3.09-1.38,3.35-1.73
							C211.11,19.84,212.03,19.47,209.86,18.24"/>
						<path class="st1" d="M179.4,28.92c0-0.18,0.02-0.37,0.02-0.56c0-0.05,0-0.11,0-0.16c0-2.05-1.97-3.63-4.05-4.12
							c0.04,0.04,0.09,0.08,0.09,0.08c2.04,1.08,1.28,2.88,1.28,2.88l-0.42-0.7c-2.45-1.01-4.12,0.31-6.13,1.55l-0.91,0.56
							c-3.26,1.55-7.88,0.89-9.27-0.52c-0.28-0.29-0.43-0.61-0.43-0.93c0-0.11,0.02-0.22,0.05-0.33c0.26-0.81,1.75-1.56,3.68-1.89
							c-0.56-0.09-1.14-0.17-1.14-0.17c-6.75,1.63-5.19,6.26,8.89,8.62c0.61,2.14,1.27,4.21,2.04,6.19c-1.41,1.59-3.17,4.3-2.3,8.26
							c0.38,1.74,1.3,0.56,1.72,0.14c1.58-1.58,2.9-1.14,3.84-1.8c0.95,0.88,1.25,1.79,1.95,2.63c0.25-4.06,1.44-7.35,4.65-10.15
							C180.82,36.13,179.4,33.18,179.4,28.92"/>
						<path class="st0" d="M177.84,20.07c-0.39,0.44-0.34,0.55-0.57,0.68c-0.07,0.03-0.16,0-0.18-0.05c-0.36-0.7,0.2-1.85,0.74-1.65
							C178.11,19.14,178.2,19.66,177.84,20.07 M179.99,17.54c-1.52-1.17-4.32,0.82-3.52,3.63c0.85,0.25,1.5,0.45,2.55,0.96
							C180.51,21.39,181.9,19.02,179.99,17.54"/>
						<path class="st2" d="M169.09,27.02c-0.33-0.22-3.17-0.76-4.31-0.45c0.66-0.44,2.06-0.75,2.21-0.78
							c0.16-0.02-1.94-0.57-3.13,0.04c-1.21,0.61-1.47,1.06-0.22,1.58C166.44,28.32,167.28,27.11,169.09,27.02"/>
						<path class="st1" d="M188.73,51.63c-1.41,0.94-4.35,2.9-6.14,6.14c1.52,1.94,1.89,2.72,2.07,4.55
							c0.21,2.14-0.49,4.58-1.49,4.76c0.95,0.14,5.22-0.69,7.87-3.1c1.94-1.76,3.42-6.08,3.42-9.65c0-2.42-0.37-3.84-1.56-5.6
							c0,0-0.03-0.04-0.05-0.06C191.54,49.91,190.28,50.6,188.73,51.63"/>
					</g>
				</g>
			</g>
		</g>
	</g>
</g>
<g>
	<path class="st0" d="M13.51,67.59l-0.48,2.54h2.36l0.48-2.54h1.39l-1.23,6.5h-1.39l0.51-2.73H12.8l-0.52,2.73h-1.39l1.23-6.5H13.51
		z"/>
	<path class="st0" d="M20.32,74.09c0.01-0.28,0.04-0.6,0.07-0.94h-0.03c-0.43,0.78-1.03,1.04-1.58,1.04c-0.85,0-1.43-0.66-1.43-1.64
		c0-1.59,1.05-3.29,3.38-3.29c0.56,0,1.17,0.11,1.56,0.23l-0.5,2.47c-0.12,0.61-0.2,1.53-0.18,2.12H20.32z M20.72,70.35
		c-0.11-0.02-0.24-0.04-0.38-0.04c-0.9,0-1.55,1.1-1.55,1.98c0,0.46,0.18,0.78,0.57,0.78c0.41,0,0.93-0.47,1.14-1.63L20.72,70.35z"
		/>
	<path class="st0" d="M23.78,67.15c0.42,0.12,0.99,0.09,1.41,0.13c0.72,0.07,1.25,0.25,1.66,0.63c0.56,0.47,0.76,1.27,0.76,2.18
		c0,1.8-0.79,4.1-2.96,4.1c-1.2,0-1.92-0.73-1.92-1.96c0-1.39,0.97-2.86,2.48-2.86c0.65,0,1.05,0.31,1.24,0.77h0.04
		c0-0.1,0-0.21,0.01-0.28c0-0.36-0.13-0.78-0.41-1.03c-0.32-0.3-0.77-0.4-1.36-0.43c-0.3-0.02-0.59-0.04-0.93-0.11L23.78,67.15z
		 M26.02,71.37c0-0.46-0.18-0.96-0.7-0.96c-0.78,0-1.17,1.12-1.15,1.85c0,0.48,0.19,0.92,0.69,0.92
		C25.6,73.17,26.01,71.99,26.02,71.37z"/>
	<path class="st0" d="M31.9,73.82c-0.55,0.28-1.23,0.37-1.75,0.37c-1.35,0-2.04-0.76-2.04-1.99c0-1.44,1.04-2.93,2.75-2.93
		c0.95,0,1.64,0.53,1.64,1.41c0,1.21-1.17,1.64-3.06,1.59c0,0.13,0.05,0.35,0.15,0.48c0.18,0.24,0.5,0.37,0.91,0.37
		c0.51,0,0.95-0.12,1.32-0.3L31.9,73.82z M30.67,70.28c-0.65,0-1.01,0.53-1.11,0.97c1.08,0.01,1.62-0.14,1.62-0.57
		C31.18,70.44,30.99,70.28,30.67,70.28z"/>
	<path class="st0" d="M34.72,69.37l0.73,1.95h0.13l0.37-1.95h1.31l-0.4,1.95h0.14l1.51-1.95h1.54l-1.94,2.07
		c0.46,0.15,0.69,0.83,0.78,1.39c0.08,0.4,0.15,0.9,0.27,1.25h-1.34c-0.11-0.29-0.15-0.7-0.21-1.02c-0.09-0.48-0.23-0.95-0.74-0.95
		h-0.15l-0.38,1.98h-1.31l0.39-1.98h-0.12c-0.53,0-0.84,0.34-1.09,0.86c-0.19,0.41-0.35,0.79-0.54,1.12h-1.37
		c0.22-0.39,0.38-0.8,0.6-1.26c0.33-0.7,0.82-1.3,1.46-1.37l-1.15-2.08H34.72z"/>
	<path class="st0" d="M42.11,69.37l-0.33,1.74h1.44l0.33-1.74h1.39l-0.9,4.72h-1.39l0.37-1.91h-1.44l-0.36,1.91h-1.39l0.89-4.72
		H42.11z"/>
	<path class="st0" d="M47.53,69.37l-0.45,1.81h0.01c0.31-0.27,0.8-0.42,1.23-0.42c0.75,0,1.29,0.46,1.29,1.29
		c0,1.02-0.86,2.12-2.58,2.12c-0.73,0-1.59-0.16-1.59-1.15c0-0.26,0.07-0.67,0.13-0.95l0.61-2.71H47.53z M48.25,72.29
		c0-0.35-0.21-0.55-0.54-0.55c-0.41,0-0.76,0.37-0.85,0.67c-0.04,0.12-0.06,0.21-0.06,0.36c0,0.25,0.17,0.42,0.5,0.42
		C47.76,73.19,48.25,72.84,48.25,72.29z M52.12,69.37l-0.91,4.72h-1.46l0.91-4.72H52.12z"/>
	<path class="st0" d="M57.5,69.37l-0.61,3.18c-0.12,0.6-0.18,1.11-0.25,1.53h-1.22l0.09-0.77h-0.02c-0.48,0.62-1.06,0.88-1.63,0.88
		c-0.75,0-1.21-0.42-1.21-1.32c0-0.26,0.03-0.54,0.1-0.87l0.49-2.63h1.39l-0.47,2.53c-0.04,0.21-0.07,0.44-0.07,0.62
		c0,0.31,0.12,0.55,0.47,0.55c0.47,0,0.96-0.57,1.14-1.51l0.41-2.18H57.5z M55.31,67.41c-0.05,0.38,0.09,0.64,0.35,0.64
		c0.28,0,0.44-0.29,0.54-0.64h0.88c-0.17,0.83-0.72,1.27-1.5,1.27c-0.86,0-1.2-0.51-1.14-1.27H55.31z"/>
	<path class="st0" d="M60.77,67.15c0.41,0.12,0.99,0.09,1.41,0.13c0.72,0.07,1.25,0.25,1.66,0.63c0.56,0.47,0.76,1.27,0.76,2.18
		c0,1.8-0.79,4.1-2.96,4.1c-1.2,0-1.92-0.73-1.92-1.96c0-1.39,0.97-2.86,2.48-2.86c0.65,0,1.05,0.31,1.24,0.77h0.04
		c0-0.1,0-0.21,0.01-0.28c0-0.36-0.13-0.78-0.41-1.03c-0.32-0.3-0.77-0.4-1.36-0.43c-0.3-0.02-0.59-0.04-0.93-0.11L60.77,67.15z
		 M63,71.37c0-0.46-0.18-0.96-0.7-0.96c-0.78,0-1.17,1.12-1.15,1.85c0,0.48,0.19,0.92,0.68,0.92C62.59,73.17,62.99,71.99,63,71.37z"
		/>
	<path class="st0" d="M64.52,76l0.91-4.8c0.11-0.56,0.22-1.34,0.28-1.82h1.24l-0.09,0.68h0.02c0.39-0.51,0.95-0.79,1.51-0.79
		c1.02,0,1.51,0.82,1.51,1.78c0,1.64-1.09,3.14-2.73,3.14c-0.39,0-0.71-0.1-0.88-0.19h-0.02l-0.39,2H64.52z M66.5,72.91
		c0.15,0.14,0.37,0.23,0.64,0.23c0.74,0,1.32-1.06,1.32-1.99c0-0.38-0.15-0.77-0.61-0.77c-0.52,0-1,0.59-1.18,1.51L66.5,72.91z"/>
	<path class="st0" d="M72.01,69.37l0.29,2.05c0.07,0.48,0.12,0.82,0.15,1.12h0.02c0.11-0.28,0.21-0.59,0.42-1.1l0.86-2.07h1.47
		l-1.69,3.38c-0.63,1.25-1.19,2.11-1.81,2.7c-0.55,0.52-1.21,0.75-1.51,0.8l-0.31-1.19c0.22-0.07,0.53-0.18,0.8-0.38
		c0.32-0.22,0.59-0.5,0.76-0.82c0.05-0.07,0.05-0.13,0.03-0.23l-0.94-4.27H72.01z"/>
	<path class="st0" d="M75.78,69.59c0.38-0.18,0.94-0.33,1.52-0.33c1.02,0,1.57,0.5,1.57,1.29c0,0.83-0.72,1.24-1.6,1.6
		c-0.52,0.23-0.87,0.42-0.87,0.68c0,0.19,0.13,0.33,0.48,0.33c0.49,0,0.98-0.2,1.29-0.37l0.15,0.98c-0.44,0.23-1.1,0.41-1.67,0.4
		c-1.04,0-1.7-0.44-1.7-1.29c0-0.98,0.86-1.34,1.68-1.68c0.46-0.19,0.88-0.37,0.88-0.62c0-0.18-0.19-0.31-0.51-0.32
		c-0.4,0-0.78,0.12-1.09,0.25L75.78,69.59z"/>
	<path class="st0" d="M85.53,70.42c0,0.63-0.62,0.99-1.1,1.12v0.03c0.48,0.05,0.97,0.38,0.97,0.97c0,1.25-1.45,1.64-2.48,1.64
		c-1.23,0-1.85-0.46-1.85-1.46c0-0.87,0.38-2.41,1.22-3.02c0.41-0.3,0.92-0.44,1.52-0.44C84.87,69.27,85.53,69.63,85.53,70.42z
		 M82.52,72.22c-0.03,0.13-0.06,0.3-0.06,0.44c0,0.34,0.15,0.57,0.63,0.57c0.54,0,0.92-0.26,0.92-0.64c0-0.39-0.35-0.51-0.7-0.51
		C83.01,72.08,82.7,72.15,82.52,72.22z M82.69,71.34c0.37-0.06,0.78-0.13,1.1-0.28c0.23-0.11,0.42-0.26,0.42-0.47
		c0-0.24-0.21-0.39-0.49-0.39C83.09,70.2,82.83,70.81,82.69,71.34z"/>
	<path class="st0" d="M90.69,69.37l0.17,1.83c0.03,0.29,0.06,0.69,0.09,1.11h0.02c0.13-0.27,0.38-0.8,0.63-1.27l0.87-1.67h1.76
		l-0.63,4.72h-1.28l0.29-1.89c0.07-0.41,0.18-1.1,0.26-1.57h-0.04c-0.14,0.34-0.4,0.88-0.69,1.46l-1,1.93h-1.05l-0.19-1.87
		c-0.05-0.53-0.1-1.1-0.12-1.52h-0.04c-0.12,0.51-0.26,1.21-0.36,1.61l-0.45,1.86h-1.23l1.24-4.72H90.69z"/>
	<path class="st0" d="M99.65,71.2c0,1.73-1.18,2.99-2.82,2.99c-1.2,0-2-0.78-2-1.95c0-1.64,1.14-2.98,2.82-2.98
		C98.92,69.27,99.65,70.13,99.65,71.2z M96.27,72.22c0,0.55,0.27,0.92,0.75,0.92c0.76,0,1.19-1.11,1.19-1.92
		c0-0.43-0.18-0.9-0.74-0.9C96.67,70.32,96.26,71.48,96.27,72.22z"/>
	<path class="st0" d="M99.69,76l0.91-4.8c0.11-0.56,0.22-1.34,0.28-1.82h1.24l-0.09,0.68h0.02c0.39-0.51,0.95-0.79,1.51-0.79
		c1.02,0,1.51,0.82,1.51,1.78c0,1.64-1.09,3.14-2.73,3.14c-0.39,0-0.71-0.1-0.88-0.19h-0.02l-0.39,2H99.69z M101.67,72.91
		c0.15,0.14,0.37,0.23,0.64,0.23c0.74,0,1.32-1.06,1.32-1.99c0-0.38-0.15-0.77-0.61-0.77c-0.52,0-1,0.59-1.18,1.51L101.67,72.91z"/>
	<path class="st0" d="M109.51,73.82c-0.55,0.28-1.23,0.37-1.75,0.37c-1.35,0-2.04-0.76-2.04-1.99c0-1.44,1.04-2.93,2.75-2.93
		c0.95,0,1.64,0.53,1.64,1.41c0,1.21-1.17,1.64-3.06,1.59c0,0.13,0.05,0.35,0.14,0.48c0.18,0.24,0.5,0.37,0.91,0.37
		c0.51,0,0.94-0.12,1.32-0.3L109.51,73.82z M108.29,70.28c-0.65,0-1.01,0.53-1.11,0.97c1.08,0.01,1.62-0.14,1.62-0.57
		C108.8,70.44,108.6,70.28,108.29,70.28z"/>
	<path class="st0" d="M112.17,74.09l0.59-3.18c0.11-0.6,0.18-1.12,0.24-1.53h1.2l-0.09,0.76h0.02c0.42-0.61,1-0.87,1.61-0.87
		c0.75,0,1.08,0.47,1.12,0.89c0.42-0.61,1.01-0.89,1.62-0.89c0.73,0,1.16,0.46,1.16,1.26c0,0.2-0.04,0.57-0.09,0.81l-0.51,2.75
		h-1.34l0.47-2.58c0.04-0.19,0.07-0.39,0.07-0.58c0-0.33-0.14-0.56-0.47-0.56c-0.46,0-0.92,0.63-1.1,1.57l-0.4,2.14h-1.34l0.48-2.59
		c0.04-0.19,0.07-0.38,0.07-0.54c0-0.32-0.11-0.58-0.44-0.58c-0.47,0-0.96,0.67-1.14,1.59l-0.39,2.12H112.17z"/>
	<path class="st0" d="M121.95,69.37l0.29,2.05c0.07,0.48,0.12,0.82,0.15,1.12h0.02c0.11-0.28,0.21-0.59,0.41-1.1l0.86-2.07h1.47
		l-1.69,3.38c-0.63,1.25-1.19,2.11-1.81,2.7c-0.55,0.52-1.21,0.75-1.51,0.8l-0.31-1.19c0.22-0.07,0.53-0.18,0.8-0.38
		c0.32-0.22,0.59-0.5,0.76-0.82c0.05-0.07,0.05-0.13,0.03-0.23l-0.94-4.27H121.95z"/>
	<path class="st0" d="M124.61,76l0.91-4.8c0.11-0.56,0.22-1.34,0.28-1.82h1.24l-0.09,0.68h0.02c0.39-0.51,0.94-0.79,1.51-0.79
		c1.02,0,1.51,0.82,1.51,1.78c0,1.64-1.09,3.14-2.73,3.14c-0.39,0-0.71-0.1-0.88-0.19h-0.02l-0.39,2H124.61z M126.59,72.91
		c0.15,0.14,0.37,0.23,0.64,0.23c0.74,0,1.32-1.06,1.32-1.99c0-0.38-0.15-0.77-0.61-0.77c-0.52,0-1,0.59-1.18,1.51L126.59,72.91z"/>
	<path class="st0" d="M135.56,69.37l-0.61,3.18c-0.12,0.6-0.18,1.11-0.25,1.53h-1.22l0.09-0.77h-0.02
		c-0.48,0.62-1.06,0.88-1.63,0.88c-0.75,0-1.21-0.42-1.21-1.32c0-0.26,0.03-0.54,0.1-0.87l0.49-2.63h1.39l-0.47,2.53
		c-0.04,0.21-0.07,0.44-0.07,0.62c0,0.31,0.12,0.55,0.47,0.55c0.47,0,0.96-0.57,1.14-1.51l0.42-2.18H135.56z"/>
	<path class="st0" d="M136.86,71.2h0.55c0.46,0,0.98-0.13,0.98-0.49c0-0.31-0.3-0.45-0.67-0.45c-0.37,0-0.83,0.13-1.17,0.3
		l-0.23-0.85c0.47-0.25,1.11-0.43,1.72-0.43c0.77,0,1.82,0.24,1.82,1.23c0,0.66-0.61,1-1.21,1.12v0.01
		c0.51,0.09,1.06,0.43,1.06,1.09c0,1.14-1.31,1.46-2.25,1.46c-0.69,0-1.35-0.13-1.87-0.48l0.36-0.93c0.38,0.23,0.89,0.4,1.36,0.4
		c0.44,0,0.94-0.16,0.94-0.54c0-0.4-0.45-0.52-0.96-0.52h-0.56L136.86,71.2z"/>
	<path class="st0" d="M143.26,69.37l0.17,1.83c0.03,0.29,0.06,0.69,0.09,1.11h0.02c0.13-0.27,0.38-0.8,0.63-1.27l0.87-1.67h1.76
		l-0.63,4.72h-1.28l0.29-1.89c0.07-0.41,0.18-1.1,0.26-1.57h-0.04c-0.14,0.34-0.4,0.88-0.69,1.46l-1,1.93h-1.05l-0.19-1.87
		c-0.05-0.53-0.1-1.1-0.12-1.52h-0.04c-0.12,0.51-0.26,1.21-0.36,1.61l-0.45,1.86h-1.23l1.24-4.72H143.26z"/>
	<path class="st0" d="M150.33,74.09c0.01-0.28,0.04-0.6,0.07-0.94h-0.03c-0.43,0.78-1.03,1.04-1.58,1.04
		c-0.85,0-1.43-0.66-1.43-1.64c0-1.59,1.05-3.29,3.38-3.29c0.56,0,1.17,0.11,1.56,0.23l-0.5,2.47c-0.12,0.61-0.2,1.53-0.18,2.12
		H150.33z M150.74,70.35c-0.11-0.02-0.24-0.04-0.38-0.04c-0.9,0-1.55,1.1-1.55,1.98c0,0.46,0.18,0.78,0.57,0.78
		c0.41,0,0.93-0.47,1.14-1.63L150.74,70.35z"/>
	<path class="st0" d="M152.6,73.4c0-0.51,0.39-0.96,0.93-0.96c0.47,0,0.8,0.34,0.8,0.81c0,0.55-0.41,0.95-0.95,0.95
		C152.91,74.19,152.6,73.86,152.6,73.4z M153.17,71.96l0.63-4.37h1.49l-1.05,4.37H153.17z"/>
</g>
<path class="st0" d="M150.87,35.04v1.33h1.03c0.74,0,1.25-0.02,1.5-0.08c0.25-0.04,0.45-0.12,0.59-0.23
	c0.14-0.1,0.21-0.22,0.21-0.37c0-0.17-0.1-0.31-0.3-0.42c-0.2-0.11-0.45-0.18-0.76-0.21c-0.23-0.02-0.69-0.03-1.36-0.03H150.87z
	 M148.97,38.95v-4.71h3.04c1.15,0,1.9,0.02,2.26,0.07c0.54,0.07,0.99,0.23,1.35,0.46c0.36,0.24,0.55,0.55,0.55,0.92
	c0,0.29-0.1,0.53-0.32,0.73c-0.21,0.19-0.48,0.35-0.8,0.46c-0.32,0.12-0.65,0.19-0.98,0.22c-0.46,0.05-1.11,0.07-1.97,0.07h-1.23
	v1.78H148.97z M140.34,36.59c0,0.53,0.24,0.93,0.73,1.21c0.5,0.28,1.12,0.42,1.88,0.42c0.75,0,1.37-0.14,1.86-0.42
	c0.49-0.27,0.72-0.68,0.72-1.23c0-0.54-0.23-0.94-0.7-1.21c-0.47-0.27-1.1-0.4-1.88-0.4c-0.79,0-1.41,0.14-1.9,0.4
	C140.57,35.64,140.34,36.05,140.34,36.59 M138.38,36.62c0-0.48,0.13-0.88,0.43-1.21c0.21-0.24,0.51-0.46,0.87-0.65
	c0.37-0.18,0.78-0.33,1.22-0.42c0.59-0.13,1.26-0.19,2.03-0.19c1.38,0,2.49,0.22,3.32,0.65c0.83,0.42,1.25,1.02,1.25,1.79
	c0,0.76-0.42,1.35-1.24,1.78c-0.82,0.43-1.92,0.65-3.3,0.65c-1.39,0-2.51-0.22-3.33-0.64C138.79,37.96,138.38,37.37,138.38,36.62
	 M133.19,38.95v-3.91h-2.78v-0.8h7.46v0.8h-2.77v3.91H133.19z M127.23,37.09l-1.29-1.75l-1.28,1.75H127.23z M130.73,38.95h-2.07
	l-0.82-1.07h-3.76l-0.77,1.07h-2.01l3.66-4.71h2.01L130.73,38.95z M116.55,35.04v1.33h1.04c0.75,0,1.25-0.02,1.5-0.08
	c0.25-0.04,0.45-0.12,0.59-0.23c0.15-0.1,0.21-0.22,0.21-0.37c0-0.17-0.1-0.31-0.3-0.42c-0.21-0.11-0.46-0.18-0.77-0.21
	c-0.23-0.02-0.68-0.03-1.36-0.03H116.55z M114.66,38.95v-4.71h3.04c1.15,0,1.9,0.02,2.25,0.07c0.54,0.07,0.99,0.23,1.36,0.46
	c0.37,0.24,0.54,0.55,0.54,0.92c0,0.29-0.09,0.53-0.31,0.73c-0.21,0.19-0.48,0.35-0.8,0.46c-0.33,0.12-0.65,0.19-0.98,0.22
	c-0.46,0.05-1.11,0.07-1.97,0.07h-1.24v1.78H114.66z M105.9,38.95v-4.71h6.97v0.8h-5.07v1.04h4.72v0.79h-4.72v1.28h5.26v0.79H105.9z
	 M96.49,34.24h7.47v4.71h-1.89v-3.92h-3.68v3.92h-1.89V34.24z M87.82,36.59c0,0.53,0.25,0.93,0.74,1.21
	c0.49,0.28,1.11,0.42,1.87,0.42c0.75,0,1.37-0.14,1.86-0.42c0.49-0.27,0.73-0.68,0.73-1.23c0-0.54-0.23-0.94-0.7-1.21
	c-0.47-0.27-1.1-0.4-1.88-0.4c-0.78,0-1.42,0.14-1.89,0.4C88.07,35.64,87.82,36.05,87.82,36.59 M85.87,36.62
	c0-0.48,0.14-0.88,0.43-1.21c0.22-0.24,0.51-0.46,0.88-0.65c0.37-0.18,0.77-0.33,1.21-0.42c0.59-0.13,1.26-0.19,2.03-0.19
	c1.38,0,2.49,0.22,3.32,0.65c0.83,0.42,1.25,1.02,1.25,1.79c0,0.76-0.41,1.35-1.24,1.78c-0.82,0.43-1.93,0.65-3.31,0.65
	c-1.39,0-2.51-0.22-3.33-0.64C86.28,37.96,85.87,37.37,85.87,36.62 M79.58,35.04v1.33h1.03c0.75,0,1.25-0.02,1.5-0.08
	c0.25-0.04,0.45-0.12,0.59-0.23c0.14-0.1,0.21-0.22,0.21-0.37c0-0.17-0.09-0.31-0.3-0.42c-0.2-0.11-0.45-0.18-0.76-0.21
	c-0.23-0.02-0.68-0.03-1.36-0.03H79.58z M77.68,38.95v-4.71h3.05c1.15,0,1.9,0.02,2.25,0.07c0.54,0.07,0.99,0.23,1.35,0.46
	c0.36,0.24,0.55,0.55,0.55,0.92c0,0.29-0.11,0.53-0.32,0.73c-0.21,0.19-0.47,0.35-0.8,0.46c-0.32,0.12-0.65,0.19-0.98,0.22
	c-0.45,0.05-1.11,0.07-1.97,0.07h-1.23v1.78H77.68z M68.57,34.24h2.12l2.19,2.45l1.87-2.45h1.98l-3.17,3.58
	c-0.34,0.38-0.7,0.68-1.05,0.88c-0.36,0.2-0.83,0.3-1.39,0.3c-0.56,0-1-0.01-1.31-0.05v-0.71c0.27,0.01,0.51,0.02,0.73,0.02
	c0.44,0,0.75-0.04,0.95-0.12c0.19-0.08,0.37-0.25,0.55-0.52L68.57,34.24z M63.62,38.95v-3.91h-2.78v-0.8h7.47v0.8h-2.78v3.91H63.62z
	"/>
</svg>
